<svg width="96" height="96" viewBox="0 0 96 96" fill="none" xmlns="http://www.w3.org/2000/svg">
<path d="M80 39.7578C80 63.6123 48 87.4669 48 87.4669C48 87.4669 16 63.6123 16 39.7578C16 31.3223 19.3714 23.2323 25.3726 17.2675C31.3737 11.3027 39.5131 7.95166 48 7.95166C56.4869 7.95166 64.6263 11.3027 70.6274 17.2675C76.6286 23.2323 80 31.3223 80 39.7578V39.7578Z" stroke="#FF7B51" stroke-width="8" stroke-linecap="round" stroke-linejoin="round"/>
<path d="M48 51.6851C54.6274 51.6851 60 46.3451 60 39.7579C60 33.1706 54.6274 27.8306 48 27.8306C41.3726 27.8306 36 33.1706 36 39.7579C36 46.3451 41.3726 51.6851 48 51.6851Z" stroke="#FF7B51" stroke-width="8" stroke-linecap="round" stroke-linejoin="round"/>
</svg>
