<svg width="96" height="96" viewBox="0 0 96 96" fill="none" xmlns="http://www.w3.org/2000/svg">
<path d="M88 67.6799V79.6799C88.0045 80.7939 87.7763 81.8966 87.33 82.9173C86.8837 83.938 86.2292 84.8543 85.4083 85.6074C84.5874 86.3605 83.6183 86.9338 82.563 87.2907C81.5077 87.6476 80.3895 87.7802 79.28 87.6799C66.9713 86.3425 55.148 82.1365 44.76 75.3999C35.0953 69.2586 26.9013 61.0646 20.76 51.3999C13.9999 40.9647 9.79295 29.0839 8.47998 16.7199C8.38002 15.6138 8.51148 14.4989 8.86598 13.4464C9.22048 12.3939 9.79026 11.4267 10.539 10.6064C11.2878 9.78611 12.1992 9.13074 13.2151 8.68199C14.2311 8.23324 15.3293 8.00095 16.44 7.9999H28.44C30.3812 7.98079 32.2631 8.66821 33.735 9.93403C35.2069 11.1998 36.1683 12.9577 36.44 14.8799C36.9465 18.7202 37.8858 22.4908 39.24 26.1199C39.7782 27.5516 39.8946 29.1076 39.5756 30.6034C39.2566 32.0993 38.5154 33.4723 37.44 34.5599L32.36 39.6399C38.0542 49.6541 46.3458 57.9457 56.36 63.6399L61.44 58.5599C62.5275 57.4844 63.9006 56.7433 65.3965 56.4243C66.8923 56.1053 68.4483 56.2217 69.88 56.7599C73.5091 58.1141 77.2797 59.0534 81.12 59.5599C83.063 59.834 84.8376 60.8127 86.1061 62.3099C87.3746 63.807 88.0487 65.7182 88 67.6799Z" stroke="#FF7B51" stroke-width="8" stroke-linecap="round" stroke-linejoin="round"/>
</svg>
